<?xml version="1.0" encoding="UTF-8" standalone="no"?>
<!-- Created with Inkscape (http://www.inkscape.org/) -->

<svg
   xmlns:dc="http://purl.org/dc/elements/1.1/"
   xmlns:cc="http://creativecommons.org/ns#"
   xmlns:rdf="http://www.w3.org/1999/02/22-rdf-syntax-ns#"
   xmlns:svg="http://www.w3.org/2000/svg"
   xmlns="http://www.w3.org/2000/svg"
   xmlns:sodipodi="http://sodipodi.sourceforge.net/DTD/sodipodi-0.dtd"
   xmlns:inkscape="http://www.inkscape.org/namespaces/inkscape"
   version="1.1"
   id="svg419"
   width="851.31567"
   height="197.11856">
  <metadata
     id="metadata425">
    <rdf:RDF>
      <cc:Work
         rdf:about="">
        <dc:format>image/svg+xml</dc:format>
        <dc:type
           rdf:resource="http://purl.org/dc/dcmitype/StillImage" />
      </cc:Work>
    </rdf:RDF>
  </metadata>
  <defs
     id="defs423" />
  <sodipodi:namedview
     pagecolor="#ffffff"
     bordercolor="#666666"
     borderopacity="1"
     objecttolerance="10"
     gridtolerance="10"
     guidetolerance="10"
     inkscape:pageopacity="0"
     inkscape:pageshadow="2"
     inkscape:window-width="640"
     inkscape:window-height="480"
     id="namedview421" />
  <inkscape:clipboard
     style="font-variant-east_asian:normal;opacity:1;vector-effect:none;fill:#000000;fill-opacity:1;stroke-width:3.77952756;stroke-linecap:butt;stroke-linejoin:miter;stroke-miterlimit:4;stroke-dasharray:none;stroke-dashoffset:0;stroke-opacity:1"
     min="-1338.7645,-489.6647"
     max="-487.44881,-292.54614" />
  <g
     id="g225"
     transform="matrix(3.7795276,0,0,3.7795276,1380.709,-957.56329)">
    <g
       id="g173">
      <g
         id="text53"
         style="font-style:normal;font-weight:normal;font-size:10.58333302px;line-height:1.25;font-family:sans-serif;letter-spacing:0px;word-spacing:0px;fill:#216778;fill-opacity:1;stroke:none;stroke-width:0.26458332"
         transform="translate(-199.98401,-102.60561)"
         aria-label="cenadev">
        <path
           id="path228"
           style="font-style:normal;font-variant:normal;font-weight:normal;font-stretch:normal;font-size:35.27777863px;font-family:Audiowide;-inkscape-font-specification:Audiowide;fill:#216778;stroke-width:0.26458332"
           d="m -146.91453,393.89188 h -12.14397 q -0.93017,0 -2.0326,-0.32729 -1.10243,-0.32728 -2.04983,-1.06798 -0.93018,-0.75792 -1.56752,-1.94648 -0.62012,-1.20578 -0.62012,-2.94555 v -6.06337 q 0,-0.63734 0.1378,-1.34359 0.15503,-0.70624 0.46509,-1.39526 0.31006,-0.70625 0.79237,-1.34359 0.49954,-0.63734 1.18856,-1.11966 0.70625,-0.48231 1.6192,-0.77514 0.91295,-0.29284 2.06705,-0.29284 h 12.14397 v 4.47863 h -12.14397 q -0.87849,0 -1.34358,0.44786 -0.44786,0.44786 -0.44786,1.37804 v 6.02892 q 0,0.8785 0.46508,1.34358 0.46509,0.46509 1.36082,0.46509 h 12.10951 z"
           inkscape:connector-curvature="0" />
        <path
           id="path231"
           style="font-style:normal;font-variant:normal;font-weight:normal;font-stretch:normal;font-size:35.27777863px;font-family:Audiowide;-inkscape-font-specification:Audiowide;fill:#216778;stroke-width:0.26458332"
           d="m -123.28118,381.43786 q 0,0.93017 -0.32728,2.01538 -0.32729,1.06798 -1.06798,1.99815 -0.72347,0.91295 -1.91203,1.53307 -1.17133,0.62012 -2.85943,0.62012 h -8.07875 v -4.2547 h 8.07875 q 0.91295,0 1.41249,-0.55121 0.49954,-0.56844 0.49954,-1.39527 0,-0.87849 -0.56844,-1.37803 -0.55122,-0.49954 -1.34359,-0.49954 h -8.07875 q -0.91295,0 -1.41249,0.56844 -0.49954,0.55121 -0.49954,1.37804 v 6.25285 q 0,0.89572 0.55122,1.39526 0.56844,0.49954 1.39526,0.49954 h 8.0443 v 4.27192 h -8.07875 q -0.93017,0 -2.01538,-0.32729 -1.06798,-0.32728 -1.99815,-1.05075 -0.91295,-0.7407 -1.53307,-1.91203 -0.62012,-1.18856 -0.62012,-2.87665 v -6.2873 q 0,-0.93018 0.32729,-1.99816 0.32728,-1.0852 1.05075,-1.99816 0.7407,-0.93017 1.91203,-1.55029 1.18856,-0.62012 2.87665,-0.62012 h 8.07875 q 0.93018,0 1.99816,0.32729 1.0852,0.32728 1.99815,1.06798 0.93018,0.72347 1.5503,1.91203 0.62011,1.17133 0.62011,2.85943 z"
           inkscape:connector-curvature="0" />
        <path
           id="path233"
           style="font-style:normal;font-variant:normal;font-weight:normal;font-stretch:normal;font-size:35.27777863px;font-family:Audiowide;-inkscape-font-specification:Audiowide;fill:#216778;stroke-width:0.26458332"
           d="m -99.596148,393.89188 h -4.478622 v -10.33529 q 0,-0.8785 -0.31006,-1.56752 -0.29283,-0.70624 -0.8096,-1.20578 -0.51676,-0.49954 -1.22301,-0.75792 -0.68902,-0.27561 -1.49861,-0.27561 h -7.8376 v 14.14212 h -4.47862 v -16.39866 q 0,-0.46509 0.17225,-0.86127 0.17226,-0.41341 0.48232,-0.70625 0.31006,-0.31006 0.72347,-0.48231 0.41341,-0.17226 0.8785,-0.17226 h 10.09413 q 0.84405,0 1.77422,0.18948 0.9474,0.18949 1.86035,0.62012 0.93018,0.41341 1.757,1.06798 0.84405,0.63734 1.48139,1.56752 0.65457,0.91295 1.033532,2.11873 0.37896,1.20579 0.37896,2.72163 z"
           inkscape:connector-curvature="0" />
        <path
           id="path235"
           style="font-style:normal;font-variant:normal;font-weight:normal;font-stretch:normal;font-size:35.27777863px;font-family:Audiowide;-inkscape-font-specification:Audiowide;fill:#216778;stroke-width:0.26458332"
           d="m -76.410652,387.72516 q 0,0.93017 -0.327285,2.01538 -0.327284,1.06798 -1.067979,1.99815 -0.72347,0.91295 -1.912028,1.53307 -1.171333,0.62012 -2.85943,0.62012 h -8.078749 q -0.930175,0 -2.015381,-0.32729 -1.067979,-0.32728 -1.998155,-1.05075 -0.91295,-0.7407 -1.533068,-1.91203 -0.620117,-1.18856 -0.620117,-2.87665 0,-0.93018 0.327284,-2.01539 0.327284,-1.0852 1.050754,-1.99815 0.740696,-0.93018 1.912029,-1.55029 1.188557,-0.62012 2.876654,-0.62012 h 8.078749 v 4.27192 h -8.078749 q -0.91295,0 -1.412489,0.56844 -0.499539,0.55121 -0.499539,1.37804 0,0.8785 0.568441,1.37803 0.585666,0.48232 1.378038,0.48232 h 8.044298 q 0.912951,0 1.41249,-0.55122 0.499538,-0.55121 0.499538,-1.37804 v -6.25284 q 0,-0.8785 -0.551215,-1.39527 -0.53399,-0.51676 -1.360813,-0.51676 h -9.835747 v -4.2547 h 9.835747 q 0.930176,0 1.998156,0.32729 1.085205,0.32728 1.998155,1.06798 0.930176,0.72347 1.550293,1.91203 0.620118,1.17133 0.620118,2.85943 z"
           inkscape:connector-curvature="0" />
        <path
           id="path237"
           style="font-style:normal;font-variant:normal;font-weight:normal;font-stretch:normal;font-size:35.27777863px;font-family:Audiowide;-inkscape-font-specification:Audiowide;fill:#216778;stroke-width:0.26458332"
           d="m -52.122731,387.60458 q 0,1.1541 -0.292833,2.08428 -0.292833,0.91295 -0.775147,1.61919 -0.482313,0.68902 -1.119656,1.18856 -0.637342,0.48232 -1.343587,0.79237 -0.689019,0.31006 -1.412489,0.46509 -0.706245,0.13781 -1.343587,0.13781 h -8.07875 q -1.154107,0 -2.067057,-0.29284 -0.91295,-0.29283 -1.619195,-0.77514 -0.689019,-0.49954 -1.188558,-1.13688 -0.482313,-0.63735 -0.792372,-1.32637 -0.310058,-0.70624 -0.465088,-1.41249 -0.137803,-0.72347 -0.137803,-1.34358 v -6.06337 q 0,-1.72255 0.620117,-2.91111 0.637342,-1.20578 1.567518,-1.94648 0.947402,-0.75792 2.049832,-1.0852 1.102431,-0.32729 2.032606,-0.32729 h 8.07875 v 4.47863 h -8.044299 q -0.895724,0 -1.360812,0.46509 -0.465088,0.44786 -0.465088,1.32636 v 6.02892 q 0,0.91295 0.447862,1.37803 0.465088,0.46509 1.343587,0.46509 h 8.07875 q 0.91295,0 1.360812,-0.46509 0.447863,-0.46508 0.447863,-1.34358 v -20.20549 h 4.478624 z"
           inkscape:connector-curvature="0" />
        <path
           id="path239"
           style="font-style:normal;font-variant:normal;font-weight:normal;font-stretch:normal;font-size:35.27777863px;font-family:Audiowide;-inkscape-font-specification:Audiowide;fill:#216778;stroke-width:0.26458332"
           d="m -27.783131,381.43786 q 0,0.93017 -0.327284,2.01538 -0.327284,1.06798 -1.067979,1.99815 -0.72347,0.91295 -1.912028,1.53307 -1.171333,0.62012 -2.85943,0.62012 h -8.078749 v -4.2547 h 8.078749 q 0.912951,0 1.41249,-0.55121 0.499538,-0.56844 0.499538,-1.39527 0,-0.87849 -0.56844,-1.37803 -0.551216,-0.49954 -1.343588,-0.49954 h -8.078749 q -0.91295,0 -1.412489,0.56844 -0.499539,0.55121 -0.499539,1.37804 v 6.25285 q 0,0.89572 0.551216,1.39526 0.56844,0.49954 1.395263,0.49954 h 8.044298 v 4.27192 h -8.078749 q -0.930176,0 -2.015381,-0.32729 -1.067979,-0.32728 -1.998155,-1.05075 -0.91295,-0.7407 -1.533068,-1.91203 -0.620117,-1.18856 -0.620117,-2.87665 v -6.2873 q 0,-0.93018 0.327284,-1.99816 0.327284,-1.0852 1.050754,-1.99816 0.740696,-0.93017 1.912028,-1.55029 1.188558,-0.62012 2.876655,-0.62012 h 8.078749 q 0.930176,0 1.998156,0.32729 1.085205,0.32728 1.998155,1.06798 0.930176,0.72347 1.550293,1.91203 0.620117,1.17133 0.620117,2.85943 z"
           inkscape:connector-curvature="0" />
        <path
           id="path241"
           style="font-style:normal;font-variant:normal;font-weight:normal;font-stretch:normal;font-size:35.27777863px;font-family:Audiowide;-inkscape-font-specification:Audiowide;fill:#216778;stroke-width:0.26458332"
           d="m -2.5133492,375.27113 q -0.757921,2.3599 -1.7742242,4.65088 -1.0163032,2.29099 -2.342665,4.37528 -1.3091363,2.06705 -2.9455567,3.84128 -1.6191949,1.757 -3.6001249,3.04891 -1.963704,1.27468 -4.289144,2.01538 -2.308214,0.72347 -5.012614,0.72347 -0.465088,0 -0.878499,-0.17226 -0.413412,-0.17225 -0.72347,-0.46509 -0.310059,-0.31005 -0.482314,-0.70624 -0.172255,-0.41341 -0.172255,-0.8785 v -16.43311 h 4.478625 v 14.00432 q 1.63642,0 3.135037,-0.70625 1.515842,-0.70624 2.859429,-1.86035 1.343587,-1.17133 2.480469,-2.65272 1.154107,-1.48139 2.0498316,-3.03169 0.8957249,-1.56751 1.5158421,-3.06613 0.6373427,-1.49862 0.9474013,-2.68718 z"
           inkscape:connector-curvature="0" />
      </g>
      <g
         id="g81"
         transform="matrix(0.89980299,0,0,0.89980299,-177.54205,-152.3897)"
         inkscape:export-xdpi="96"
         inkscape:export-ydpi="96">
        <path
           id="circle55"
           d="m -36.430699,485.23569 a 4.7854266,4.7854266 0 0 1 -4.785426,4.78542 4.7854266,4.7854266 0 0 1 -4.785427,-4.78542 4.7854266,4.7854266 0 0 1 4.785427,-4.78543 4.7854266,4.7854266 0 0 1 4.785426,4.78543 z"
           style="stroke-width:0.1863497"
           transform="rotate(-2.1540468)"
           inkscape:connector-curvature="0" />
        <path
           id="circle57"
           d="m 8.4112835,500.64764 a 4.7854266,4.7854266 0 0 1 -4.7854266,4.78543 4.7854266,4.7854266 0 0 1 -4.7854266,-4.78543 4.7854266,4.7854266 0 0 1 4.7854266,-4.78542 4.7854266,4.7854266 0 0 1 4.7854266,4.78542 z"
           style="stroke-width:0.1863497"
           transform="rotate(-2.1540468)"
           inkscape:connector-curvature="0" />
        <path
           id="circle59"
           d="m -21.675509,500.405 a 4.7854266,4.7854266 0 0 1 -4.785427,4.78543 4.7854266,4.7854266 0 0 1 -4.785426,-4.78543 4.7854266,4.7854266 0 0 1 4.785426,-4.78543 4.7854266,4.7854266 0 0 1 4.785427,4.78543 z"
           style="stroke-width:0.1863497"
           transform="rotate(-2.1540468)"
           inkscape:connector-curvature="0" />
        <path
           id="circle61"
           d="m -6.4571271,485.33221 a 4.7854266,4.7854266 0 0 1 -4.7854269,4.78543 4.7854266,4.7854266 0 0 1 -4.785426,-4.78543 4.7854266,4.7854266 0 0 1 4.785426,-4.78542 4.7854266,4.7854266 0 0 1 4.7854269,4.78542 z"
           style="stroke-width:0.1863497"
           transform="rotate(-2.1540468)"
           inkscape:connector-curvature="0" />
        <path
           id="circle63"
           d="m 23.389516,486.07687 a 4.7854266,4.7854266 0 0 1 -4.785426,4.78543 4.7854266,4.7854266 0 0 1 -4.785427,-4.78543 4.7854266,4.7854266 0 0 1 4.785427,-4.78542 4.7854266,4.7854266 0 0 1 4.785426,4.78542 z"
           style="stroke-width:0.1863497"
           transform="rotate(-2.1540468)"
           inkscape:connector-curvature="0" />
        <path
           id="circle65"
           d="m 8.5362871,470.74362 a 4.7854266,4.7854266 0 0 1 -4.7854266,4.78543 4.7854266,4.7854266 0 0 1 -4.7854267,-4.78543 4.7854266,4.7854266 0 0 1 4.7854267,-4.78542 4.7854266,4.7854266 0 0 1 4.7854266,4.78542 z"
           style="stroke-width:0.1863497"
           transform="rotate(-2.1540468)"
           inkscape:connector-curvature="0" />
        <path
           id="circle67"
           d="m -21.186253,470.28143 a 4.7854266,4.7854266 0 0 1 -4.785427,4.78543 4.7854266,4.7854266 0 0 1 -4.785426,-4.78543 4.7854266,4.7854266 0 0 1 4.785426,-4.78542 4.7854266,4.7854266 0 0 1 4.785427,4.78542 z"
           style="stroke-width:0.1863497"
           transform="rotate(-2.1540468)"
           inkscape:connector-curvature="0" />
        <path
           id="circle69"
           d="m -6.1757092,455.62186 a 4.7854266,4.7854266 0 0 1 -4.7854268,4.78542 4.7854266,4.7854266 0 0 1 -4.785426,-4.78542 4.7854266,4.7854266 0 0 1 4.785426,-4.78543 4.7854266,4.7854266 0 0 1 4.7854268,4.78543 z"
           style="stroke-width:0.1863497"
           transform="rotate(-2.1540468)"
           inkscape:connector-curvature="0" />
        <path
           id="rect71"
           d="m 317.62143,325.18359 h 1.74015 v 43.73416 h -1.74015 z"
           style="stroke-width:0.21574686"
           transform="rotate(43.597017)"
           inkscape:connector-curvature="0" />
        <path
           id="rect73"
           d="m -327.56052,318.71191 h 1.74016 v 43.73416 h -1.74016 z"
           style="stroke-width:0.21574686"
           transform="rotate(-46.517338)"
           inkscape:connector-curvature="0" />
        <path
           id="rect75"
           d="m 339.00775,325.18359 h 1.74016 V 347.383 h -1.74016 z"
           style="stroke-width:0.15371096"
           transform="rotate(43.597017)"
           inkscape:connector-curvature="0" />
        <path
           id="rect77"
           d="m -370.34094,319.00449 h 1.74015 v 21.3865 h -1.74015 z"
           style="stroke-width:0.15087026"
           transform="matrix(0.68887469,-0.72488045,0.72701621,0.68662029,0,0)"
           inkscape:connector-curvature="0" />
        <path
           id="rect79"
           d="m -349.52057,340.3913 h 1.74015 v 21.3865 h -1.74015 z"
           style="stroke-width:0.15087026"
           transform="matrix(0.68887469,-0.72488045,0.72701621,0.68662029,0,0)"
           inkscape:connector-curvature="0" />
      </g>
      <g
         id="text87"
         style="font-style:normal;font-weight:normal;font-size:10.58333302px;line-height:1.25;font-family:sans-serif;letter-spacing:0px;word-spacing:0px;fill:#000000;fill-opacity:1;stroke:none;stroke-width:0.26458332"
         transform="translate(-199.98401,-102.60561)"
         aria-label="Develop your mind!">
        <path
           id="path257"
           style="font-size:12.69999981px;stroke-width:0.26458332"
           d="m -163.11027,397.24453 v 7.19956 h 1.51308 q 1.91617,0 2.80293,-0.86817 0.89297,-0.86816 0.89297,-2.74092 0,-1.86035 -0.89297,-2.72231 -0.88676,-0.86816 -2.80293,-0.86816 z m -1.25264,-1.0294 h 2.57349 q 2.69131,0 3.95014,1.12241 1.25884,1.11621 1.25884,3.49746 0,2.39366 -1.26504,3.51607 -1.26504,1.12241 -3.94394,1.12241 h -2.57349 z"
           inkscape:connector-curvature="0" />
        <path
           id="path259"
           style="font-size:12.69999981px;stroke-width:0.26458332"
           d="m -148.69875,401.71557 v 0.55811 h -5.24619 q 0.0744,1.17822 0.70693,1.79834 0.63872,0.61391 1.77354,0.61391 0.65732,0 1.27124,-0.16123 0.62012,-0.16123 1.22783,-0.48369 v 1.079 q -0.61392,0.26045 -1.25884,0.39688 -0.64492,0.13642 -1.30844,0.13642 -1.66192,0 -2.6355,-0.96738 -0.96739,-0.96738 -0.96739,-2.61689 0,-1.70533 0.91778,-2.70371 0.92397,-1.00459 2.48667,-1.00459 1.40146,0 2.21382,0.90537 0.81855,0.89917 0.81855,2.44946 z m -1.14101,-0.33486 q -0.0124,-0.93638 -0.5271,-1.49449 -0.5085,-0.5581 -1.35186,-0.5581 -0.95498,0 -1.53169,0.5395 -0.57051,0.5395 -0.65732,1.51929 z"
           inkscape:connector-curvature="0" />
        <path
           id="path261"
           style="font-size:12.69999981px;stroke-width:0.26458332"
           d="m -147.64455,398.52817 h 1.20923 l 2.17041,5.8291 2.17041,-5.8291 h 1.20923 l -2.60449,6.94531 h -1.5503 z"
           inkscape:connector-curvature="0" />
        <path
           id="path263"
           style="font-size:12.69999981px;stroke-width:0.26458332"
           d="m -133.36945,401.71557 v 0.55811 h -5.24619 q 0.0744,1.17822 0.70693,1.79834 0.63872,0.61391 1.77353,0.61391 0.65733,0 1.27124,-0.16123 0.62012,-0.16123 1.22784,-0.48369 v 1.079 q -0.61392,0.26045 -1.25884,0.39688 -0.64492,0.13642 -1.30845,0.13642 -1.66191,0 -2.6355,-0.96738 -0.96738,-0.96738 -0.96738,-2.61689 0,-1.70533 0.91777,-2.70371 0.92398,-1.00459 2.48667,-1.00459 1.40147,0 2.21382,0.90537 0.81856,0.89917 0.81856,2.44946 z m -1.14102,-0.33486 q -0.0124,-0.93638 -0.5271,-1.49449 -0.50849,-0.5581 -1.35185,-0.5581 -0.95498,0 -1.53169,0.5395 -0.57051,0.5395 -0.65733,1.51929 z"
           inkscape:connector-curvature="0" />
        <path
           id="path265"
           style="font-size:12.69999981px;stroke-width:0.26458332"
           d="m -131.4967,395.82446 h 1.14102 v 9.64902 h -1.14102 z"
           inkscape:connector-curvature="0" />
        <path
           id="path267"
           style="font-size:12.69999981px;stroke-width:0.26458332"
           d="m -125.28313,399.32812 q -0.91777,0 -1.45107,0.71933 -0.5333,0.71314 -0.5333,1.95958 0,1.24643 0.5271,1.96577 0.5333,0.71313 1.45727,0.71313 0.91158,0 1.44488,-0.71933 0.5333,-0.71934 0.5333,-1.95957 0,-1.23404 -0.5333,-1.95337 -0.5333,-0.72554 -1.44488,-0.72554 z m 0,-0.96738 q 1.48829,0 2.33785,0.96738 0.84956,0.96738 0.84956,2.67891 0,1.70532 -0.84956,2.6789 -0.84956,0.96738 -2.33785,0.96738 -1.49448,0 -2.34404,-0.96738 -0.84336,-0.97358 -0.84336,-2.6789 0,-1.71153 0.84336,-2.67891 0.84956,-0.96738 2.34404,-0.96738 z"
           inkscape:connector-curvature="0" />
        <path
           id="path269"
           style="font-size:12.69999981px;stroke-width:0.26458332"
           d="m -119.10676,404.43168 v 3.6835 h -1.14721 v -9.58701 h 1.14721 v 1.0542 q 0.35967,-0.62012 0.90538,-0.91778 0.5519,-0.30385 1.31464,-0.30385 1.26504,0 2.05259,1.00459 0.79375,1.00459 0.79375,2.6417 0,1.6371 -0.79375,2.64169 -0.78755,1.00459 -2.05259,1.00459 -0.76274,0 -1.31464,-0.29765 -0.54571,-0.30386 -0.90538,-0.92398 z m 3.88194,-2.42465 q 0,-1.25884 -0.5209,-1.97198 -0.5147,-0.71933 -1.42007,-0.71933 -0.90537,0 -1.42627,0.71933 -0.5147,0.71314 -0.5147,1.97198 0,1.25883 0.5147,1.97817 0.5209,0.71313 1.42627,0.71313 0.90537,0 1.42007,-0.71313 0.5209,-0.71934 0.5209,-1.97817 z"
           inkscape:connector-curvature="0" />
        <path
           id="path271"
           style="font-size:12.69999981px;stroke-width:0.26458332"
           d="m -105.21613,406.1184 q -0.48369,1.24024 -0.94258,1.61851 -0.45889,0.37827 -1.22783,0.37827 h -0.91157 v -0.95498 h 0.66972 q 0.47129,0 0.73174,-0.22324 0.26045,-0.22325 0.57671,-1.0542 l 0.20464,-0.5209 -2.80913,-6.83369 h 1.20923 l 2.17041,5.43222 2.17041,-5.43222 h 1.20922 z"
           inkscape:connector-curvature="0" />
        <path
           id="path273"
           style="font-size:12.69999981px;stroke-width:0.26458332"
           d="m -97.89875,399.32812 q -0.917773,0 -1.451074,0.71933 -0.533301,0.71314 -0.533301,1.95958 0,1.24643 0.5271,1.96577 0.533301,0.71313 1.457275,0.71313 0.911573,0 1.444873,-0.71933 0.533301,-0.71934 0.533301,-1.95957 0,-1.23404 -0.533301,-1.95337 -0.5333,-0.72554 -1.444873,-0.72554 z m 0,-0.96738 q 1.488282,0 2.337842,0.96738 0.849561,0.96738 0.849561,2.67891 0,1.70532 -0.849561,2.6789 -0.84956,0.96738 -2.337842,0.96738 -1.494482,0 -2.34404,-0.96738 -0.84336,-0.97358 -0.84336,-2.6789 0,-1.71153 0.84336,-2.67891 0.849558,-0.96738 2.34404,-0.96738 z"
           inkscape:connector-curvature="0" />
        <path
           id="path275"
           style="font-size:12.69999981px;stroke-width:0.26458332"
           d="m -92.944014,402.73256 v -4.20439 h 1.141016 v 4.16098 q 0,0.98599 0.384472,1.48208 0.384473,0.4899 1.153418,0.4899 0.923975,0 1.457276,-0.58911 0.539502,-0.58912 0.539502,-1.60611 v -3.93774 h 1.141015 v 6.94531 h -1.141015 v -1.0666 q -0.415479,0.63252 -0.967383,0.94258 -0.545703,0.30385 -1.27124,0.30385 -1.196827,0 -1.816944,-0.74414 -0.620117,-0.74414 -0.620117,-2.17661 z m 2.871143,-4.37182 z"
           inkscape:connector-curvature="0" />
        <path
           id="path277"
           style="font-size:12.69999981px;stroke-width:0.26458332"
           d="m -80.740108,399.59477 q -0.192236,-0.11162 -0.421679,-0.16123 -0.223243,-0.0558 -0.496094,-0.0558 -0.967383,0 -1.488281,0.63252 -0.514698,0.62632 -0.514698,1.80454 v 3.65869 h -1.147216 v -6.94531 h 1.147216 v 1.079 q 0.359668,-0.63252 0.936377,-0.93638 0.576709,-0.31005 1.401465,-0.31005 0.117822,0 0.260449,0.0186 0.142627,0.0124 0.31626,0.0434 z"
           inkscape:connector-curvature="0" />
        <path
           id="path279"
           style="font-size:12.69999981px;stroke-width:0.26458332"
           d="m -70.080292,399.86142 q 0.427881,-0.76895 1.023193,-1.13481 0.595313,-0.36587 1.401465,-0.36587 1.085205,0 1.674317,0.76274 0.589111,0.75654 0.589111,2.15801 v 4.19199 h -1.147217 v -4.15478 q 0,-0.99839 -0.353467,-1.48208 -0.353466,-0.4837 -1.079003,-0.4837 -0.886768,0 -1.401465,0.58911 -0.514698,0.58912 -0.514698,1.60611 v 3.92534 h -1.147216 v -4.15478 q 0,-1.00459 -0.353467,-1.48208 -0.353467,-0.4837 -1.091406,-0.4837 -0.874366,0 -1.389063,0.59532 -0.514697,0.58911 -0.514697,1.5999 v 3.92534 h -1.147217 v -6.94531 h 1.147217 v 1.079 q 0.390674,-0.63872 0.936377,-0.94258 0.545703,-0.30385 1.296045,-0.30385 0.756543,0 1.283642,0.38447 0.533301,0.38447 0.787549,1.11621 z"
           inkscape:connector-curvature="0" />
        <path
           id="path281"
           style="font-size:12.69999981px;stroke-width:0.26458332"
           d="m -63.110181,398.52817 h 1.141016 v 6.94531 h -1.141016 z m 0,-2.70371 h 1.141016 v 1.44487 h -1.141016 z"
           inkscape:connector-curvature="0" />
        <path
           id="path283"
           style="font-size:12.69999981px;stroke-width:0.26458332"
           d="m -53.81462,401.28149 v 4.19199 h -1.141015 v -4.15478 q 0,-0.98599 -0.384473,-1.47588 -0.384472,-0.4899 -1.153418,-0.4899 -0.923974,0 -1.457275,0.58911 -0.533301,0.58912 -0.533301,1.60611 v 3.92534 h -1.147217 v -6.94531 h 1.147217 v 1.079 q 0.409277,-0.62632 0.961182,-0.93638 0.558105,-0.31005 1.283642,-0.31005 1.196826,0 1.810742,0.74414 0.613916,0.73794 0.613916,2.17661 z"
           inkscape:connector-curvature="0" />
        <path
           id="path285"
           style="font-size:12.69999981px;stroke-width:0.26458332"
           d="m -46.956123,399.58237 v -3.75791 h 1.141015 v 9.64902 h -1.141015 v -1.0418 q -0.359668,0.62012 -0.911573,0.92398 -0.545703,0.29765 -1.314648,0.29765 -1.258838,0 -2.052588,-1.00459 -0.787549,-1.00459 -0.787549,-2.64169 0,-1.63711 0.787549,-2.6417 0.79375,-1.00459 2.052588,-1.00459 0.768945,0 1.314648,0.30385 0.551905,0.29766 0.911573,0.91778 z m -3.888135,2.42466 q 0,1.25883 0.514697,1.97817 0.520899,0.71313 1.42627,0.71313 0.905371,0 1.426269,-0.71313 0.520899,-0.71934 0.520899,-1.97817 0,-1.25884 -0.520899,-1.97198 -0.520898,-0.71933 -1.426269,-0.71933 -0.905371,0 -1.42627,0.71933 -0.514697,0.71314 -0.514697,1.97198 z"
           inkscape:connector-curvature="0" />
        <path
           id="path287"
           style="font-size:12.69999981px;stroke-width:0.26458332"
           d="m -42.745528,403.89838 h 1.258838 v 1.5751 h -1.258838 z m 0,-7.68325 h 1.258838 v 4.06177 l -0.124023,2.21382 h -1.00459 l -0.130225,-2.21382 z"
           inkscape:connector-curvature="0" />
      </g>
      <g
         id="text113"
         style="font-style:normal;font-weight:normal;font-size:10.58333302px;line-height:1.25;font-family:sans-serif;letter-spacing:0px;word-spacing:0px;fill:#000000;fill-opacity:1;stroke:none;stroke-width:0.26458332"
         aria-label="academy">
        <path
           id="path290"
           style="font-style:normal;font-variant:normal;font-weight:bold;font-stretch:normal;font-size:16.93333244px;font-family:Audiowide;-inkscape-font-specification:'Audiowide Bold';stroke-width:0.26458332"
           d="m -355.51473,263.11178 q 0,0.44649 -0.15709,0.96738 -0.1571,0.51263 -0.51263,0.95912 -0.34727,0.43822 -0.91778,0.73587 -0.56224,0.29766 -1.37252,0.29766 h -3.8778 q -0.44649,0 -0.96738,-0.1571 -0.51263,-0.15709 -0.95912,-0.50436 -0.43821,-0.35553 -0.73587,-0.91777 -0.29766,-0.57051 -0.29766,-1.3808 0,-0.44648 0.1571,-0.96738 0.1571,-0.5209 0.50436,-0.95912 0.35553,-0.44648 0.91777,-0.74414 0.57051,-0.29765 1.3808,-0.29765 h 3.8778 v 2.05052 h -3.8778 q -0.43822,0 -0.678,0.27285 -0.23977,0.26458 -0.23977,0.66146 0,0.42168 0.27285,0.66146 0.28112,0.23151 0.66146,0.23151 h 3.86126 q 0.43821,0 0.67799,-0.26459 0.23978,-0.26458 0.23978,-0.66145 v -3.00137 q 0,-0.42168 -0.26458,-0.66973 -0.25632,-0.24804 -0.65319,-0.24804 h -4.72116 v -2.04226 h 4.72116 q 0.44648,0 0.95911,0.1571 0.5209,0.1571 0.95912,0.51263 0.44648,0.34726 0.74414,0.91777 0.29765,0.56224 0.29765,1.37253 z"
           inkscape:connector-curvature="0" />
        <path
           id="path292"
           style="font-style:normal;font-variant:normal;font-weight:bold;font-stretch:normal;font-size:16.93333244px;font-family:Audiowide;-inkscape-font-specification:'Audiowide Bold';stroke-width:0.26458332"
           d="m -345.00581,266.07181 h -5.8291 q -0.44648,0 -0.97565,-0.1571 -0.52917,-0.15709 -0.98392,-0.51263 -0.44648,-0.3638 -0.75241,-0.93431 -0.29765,-0.57877 -0.29765,-1.41387 v -2.91041 q 0,-0.30593 0.0661,-0.64492 0.0744,-0.339 0.22324,-0.66973 0.14883,-0.339 0.38034,-0.64492 0.23978,-0.30593 0.57051,-0.53744 0.339,-0.23151 0.77721,-0.37207 0.43822,-0.14056 0.99219,-0.14056 h 5.8291 v 2.14974 h -5.8291 q -0.42168,0 -0.64492,0.21498 -0.21497,0.21497 -0.21497,0.66145 v 2.89388 q 0,0.42168 0.22324,0.64493 0.22324,0.22324 0.65319,0.22324 h 5.81256 z"
           inkscape:connector-curvature="0" />
        <path
           id="path294"
           style="font-style:normal;font-variant:normal;font-weight:bold;font-stretch:normal;font-size:16.93333244px;font-family:Audiowide;-inkscape-font-specification:'Audiowide Bold';stroke-width:0.26458332"
           d="m -334.05041,263.11178 q 0,0.44649 -0.15709,0.96738 -0.1571,0.51263 -0.51263,0.95912 -0.34727,0.43822 -0.91778,0.73587 -0.56223,0.29766 -1.37252,0.29766 h -3.8778 q -0.44648,0 -0.96738,-0.1571 -0.51263,-0.15709 -0.95912,-0.50436 -0.43821,-0.35553 -0.73587,-0.91777 -0.29766,-0.57051 -0.29766,-1.3808 0,-0.44648 0.1571,-0.96738 0.1571,-0.5209 0.50436,-0.95912 0.35554,-0.44648 0.91778,-0.74414 0.5705,-0.29765 1.38079,-0.29765 h 3.8778 v 2.05052 h -3.8778 q -0.43822,0 -0.678,0.27285 -0.23977,0.26458 -0.23977,0.66146 0,0.42168 0.27285,0.66146 0.28112,0.23151 0.66146,0.23151 h 3.86126 q 0.43822,0 0.67799,-0.26459 0.23978,-0.26458 0.23978,-0.66145 v -3.00137 q 0,-0.42168 -0.26458,-0.66973 -0.25632,-0.24804 -0.65319,-0.24804 h -4.72116 v -2.04226 h 4.72116 q 0.44648,0 0.95911,0.1571 0.5209,0.1571 0.95912,0.51263 0.44648,0.34726 0.74414,0.91777 0.29765,0.56224 0.29765,1.37253 z"
           inkscape:connector-curvature="0" />
        <path
           id="path296"
           style="font-style:normal;font-variant:normal;font-weight:bold;font-stretch:normal;font-size:16.93333244px;font-family:Audiowide;-inkscape-font-specification:'Audiowide Bold';stroke-width:0.26458332"
           d="m -322.3922,263.0539 q 0,0.55398 -0.14056,1.00046 -0.14056,0.43822 -0.37207,0.77721 -0.23151,0.33073 -0.53744,0.57051 -0.30592,0.23151 -0.64492,0.38034 -0.33073,0.14883 -0.67799,0.22324 -0.339,0.0662 -0.64493,0.0662 h -3.8778 q -0.55397,0 -0.99218,-0.14056 -0.43822,-0.14056 -0.77722,-0.37207 -0.33073,-0.23978 -0.5705,-0.54571 -0.23152,-0.30592 -0.38034,-0.63665 -0.14883,-0.339 -0.22325,-0.67799 -0.0661,-0.34727 -0.0661,-0.64493 v -2.91041 q 0,-0.82683 0.29765,-1.39733 0.30593,-0.57878 0.75241,-0.93431 0.45476,-0.3638 0.98392,-0.5209 0.52917,-0.1571 0.97565,-0.1571 h 3.8778 v 2.14974 h -3.86126 q -0.42995,0 -0.65319,0.22324 -0.22324,0.21498 -0.22324,0.63666 v 2.89388 q 0,0.43821 0.21497,0.66146 0.22324,0.22324 0.64492,0.22324 h 3.8778 q 0.43822,0 0.65319,-0.22324 0.21498,-0.22325 0.21498,-0.64493 v -9.69863 h 2.14974 z"
           inkscape:connector-curvature="0" />
        <path
           id="path298"
           style="font-style:normal;font-variant:normal;font-weight:bold;font-stretch:normal;font-size:16.93333244px;font-family:Audiowide;-inkscape-font-specification:'Audiowide Bold';stroke-width:0.26458332"
           d="m -310.7092,260.09388 q 0,0.44648 -0.15709,0.96738 -0.1571,0.51263 -0.51263,0.95912 -0.34727,0.43821 -0.91778,0.73587 -0.56224,0.29765 -1.37252,0.29765 h -3.8778 v -2.04225 h 3.8778 q 0.43821,0 0.67799,-0.26458 0.23978,-0.27285 0.23978,-0.66973 0,-0.42168 -0.27285,-0.66146 -0.26458,-0.23977 -0.64492,-0.23977 h -3.8778 q -0.43822,0 -0.678,0.27285 -0.23977,0.26458 -0.23977,0.66145 v 3.00137 q 0,0.42995 0.26458,0.66973 0.27285,0.23978 0.66973,0.23978 h 3.86126 v 2.05052 h -3.8778 q -0.44649,0 -0.96738,-0.1571 -0.51263,-0.15709 -0.95912,-0.50436 -0.43821,-0.35553 -0.73587,-0.91777 -0.29766,-0.57051 -0.29766,-1.3808 v -3.0179 q 0,-0.44649 0.1571,-0.95912 0.1571,-0.52089 0.50436,-0.95911 0.35554,-0.44648 0.91777,-0.74414 0.57051,-0.29766 1.3808,-0.29766 h 3.8778 q 0.44648,0 0.95911,0.1571 0.5209,0.1571 0.95912,0.51263 0.44648,0.34726 0.74414,0.91777 0.29765,0.56224 0.29765,1.37253 z"
           inkscape:connector-curvature="0" />
        <path
           id="path300"
           style="font-style:normal;font-variant:normal;font-weight:bold;font-stretch:normal;font-size:16.93333244px;font-family:Audiowide;-inkscape-font-specification:'Audiowide Bold';stroke-width:0.26458332"
           d="m -301.26688,266.07181 h -2.14974 v -5.92832 q 0,-0.42168 -0.22324,-0.63666 -0.22324,-0.22324 -0.66146,-0.22324 h -2.79466 v 6.78822 h -2.14974 v -7.87136 q 0,-0.22324 0.0827,-0.41341 0.0827,-0.19843 0.23151,-0.33899 0.14882,-0.14883 0.34726,-0.23152 0.19844,-0.0827 0.42168,-0.0827 h 3.8778 q 0.44649,0 0.95912,0.1571 0.51263,0.1571 0.97565,0.50436 v -0.66146 h 2.91041 q 0.30593,0 0.64492,0.0744 0.339,0.0661 0.66973,0.21497 0.339,0.14883 0.64492,0.38861 0.30593,0.23151 0.53744,0.57051 0.23151,0.33072 0.37207,0.76894 0.14056,0.43822 0.14056,0.99219 v 5.92832 h -2.14974 v -5.92832 q 0,-0.42168 -0.21498,-0.63666 -0.2067,-0.22324 -0.64492,-0.22324 h -1.93476 q 0.10748,0.39688 0.10748,0.8599 z"
           inkscape:connector-curvature="0" />
        <path
           id="path302"
           style="font-style:normal;font-variant:normal;font-weight:bold;font-stretch:normal;font-size:16.93333244px;font-family:Audiowide;-inkscape-font-specification:'Audiowide Bold';stroke-width:0.26458332"
           d="m -284.6064,266.9317 q 0,0.55397 -0.14056,0.99219 -0.14056,0.44649 -0.37207,0.77721 -0.23151,0.339 -0.53743,0.57051 -0.30593,0.23978 -0.64492,0.38861 -0.33073,0.14883 -0.66973,0.21497 -0.339,0.0744 -0.64492,0.0744 h -3.8778 v -2.14974 h 3.8778 q 0.42995,0 0.64492,-0.22324 0.21498,-0.22325 0.21498,-0.64493 v -9.79785 h 2.14973 z m -3.00963,-0.85989 h -3.8778 q -0.46302,0 -0.99219,-0.1571 -0.5209,-0.15709 -0.97565,-0.51263 -0.45475,-0.3638 -0.75241,-0.93431 -0.29765,-0.57877 -0.29765,-1.41387 v -5.92005 h 2.14974 v 5.92005 q 0,0.42168 0.22324,0.64493 0.22324,0.22324 0.66146,0.22324 h 3.86126 z"
           inkscape:connector-curvature="0" />
      </g>
    </g>
  </g>
</svg>
